<svg id="Group_8" data-name="Group 8" xmlns="http://www.w3.org/2000/svg" xmlns:xlink="http://www.w3.org/1999/xlink" width="402.364" height="405.931" viewBox="0 0 402.364 405.931">
  <defs>
    <clipPath id="clip-path">
      <rect id="Rectangle_4" data-name="Rectangle 4" width="402.364" height="405.931" fill="#531d83"/>
    </clipPath>
  </defs>
  <g id="Group_7" data-name="Group 7" clip-path="url(#clip-path)">
    <path id="Path_33" data-name="Path 33" d="M401.562,75.922A30.489,30.489,0,0,0,391.853,58.9c-8.858-7.735-20.813-9.055-31.162-8.214,1.058-12.037-.049-26.761-8.723-37.49C346.283,6.163,335.173-1.778,314.6.353c-11.321,1.169-20.924,6.913-27.769,16.609-11.7,16.573-14.326,44.571-13.167,72.633A149.521,149.521,0,0,1,251.094,62.9a13.135,13.135,0,1,0-22.373,13.768c1.021,1.668,18.9,30.262,48.145,48.434,2.122,15.952,4.8,30.055,6.845,39.727-28.245-4.729-47.675-25.532-66.524-45.757-18.99-20.382-38.623-41.448-66.149-41.448-.22,0-.437,0-.66,0-33.316.407-65.975,32.577-91.153,73.785a394.532,394.532,0,0,0-40.174-23.207A13.138,13.138,0,0,0,7.228,151.674a360.268,360.268,0,0,1,39.139,22.793A372.044,372.044,0,0,0,27.8,217.512c-9.725,27.178-29.184,93.044.03,117.611,7.311,6.148,17.578,9.295,29.592,9.295a86.75,86.75,0,0,0,23-3.36c25.2-6.989,54.694-25.848,63.745-52.221,12.487-36.387-12.671-82.173-63.5-122,21.355-35.569,47.521-62.658,70.035-62.934h.309c16.126,0,30.419,15.341,46.959,33.086,21.808,23.4,48.779,52.217,91.517,54.871,5.038,18.652,15.265,40.88,32.643,56.063-19.978,23.4-44.3,43.783-67.3,47.882a38.893,38.893,0,0,1-31.4-7.337C200.7,271.677,197.038,248.66,196.26,232.81a13.137,13.137,0,1,0-26.242,1.287c.539,10.989,2.082,42.194,28.189,67.378a129.326,129.326,0,0,0-23.22,21.2c-19.18,22.622-25.6,48.072-18.579,73.6A13.137,13.137,0,1,0,181.74,389.3c-11.328-41.146,34.492-68.438,36.466-69.588a12.958,12.958,0,0,0,2.92-2.388,64.736,64.736,0,0,0,38.311,4.342c34.446-6.138,65.407-35.927,85.52-60.159a72.576,72.576,0,0,0,23.371,4.247c.089,0,.181,0,.276,0a13.14,13.14,0,0,0,13.062-14.487c-.667-6.762-6.707-11.574-13.5-11.8a49.191,49.191,0,0,1-6.056-.594c1.281-1.859,2.411-3.534,3.334-4.936,7.225-10.986,29.454-48.434,12.116-69.161-11.383-13.613-28.931-9.127-45.9-4.785-6.562,1.675-13.659,3.481-21.108,4.637-1.859-8.263-3.675-17.479-5.271-27.2a83.954,83.954,0,0,0,10.914,1.99c24.721,2.8,48.723-5.675,71.506-25.24,11.045-9.482,16.917-24.028,13.866-38.259M119.311,280.308c-4.989,14.536-24.3,29.437-45.915,35.428-14.441,4.007-24.8,2.526-28.662-.723-8.91-7.495-9.2-41.11,7.8-88.65a342.681,342.681,0,0,1,15.311-36.012c41.087,33.48,58.871,68.373,51.465,89.957M338.158,185.45c6.49-1.662,16.136-4.128,19.387-3.511,1.678,4.125-2.847,20.527-14.054,37.559-1.675,2.545-3.452,5.12-5.275,7.7a69.762,69.762,0,0,1-14.592-19.729,112.158,112.158,0,0,1-7.035-17.19c7.905-1.347,15.164-3.2,21.568-4.831m33.48-92.128c-17.367,15.229-34.958,21.946-52.385,20a62.285,62.285,0,0,1-17.844-4.88c-3.206-31.746-2.654-62.819,6.884-76.331,2.506-3.55,5.2-5.232,9.006-5.623,7.091-.736,11.9.345,14.224,3.212,5.314,6.542,3.153,24.087.023,33.858a13.181,13.181,0,0,0,6.388,15.689,13.523,13.523,0,0,0,10.805.644c9.262-3.209,22.176-4.4,25.841-1.189a5.209,5.209,0,0,1,1.366,2.887,12.48,12.48,0,0,1-4.309,11.732" transform="translate(0.001 0.001)" fill="#531d83"/>
    <path id="Path_34" data-name="Path 34" d="M66.949,85.46c2.558-3.977,7.738-10.579,12.556-10.474,7.938.253,19.01,13.6,24,22.547a13.137,13.137,0,0,0,23-12.7c-1.987-3.6-20.156-35.224-46.1-36.108-9.446-.3-23.21,3.327-35.559,22.507A13.138,13.138,0,0,0,66.949,85.46" transform="translate(97.684 111.273)" fill="#531d83"/>
  </g>
</svg>
