<svg id="Group_2" data-name="Group 2" xmlns="http://www.w3.org/2000/svg" xmlns:xlink="http://www.w3.org/1999/xlink" width="515.054" height="448.451" viewBox="0 0 515.054 448.451">
  <defs>
    <clipPath id="clip-path">
      <rect id="Rectangle_1" data-name="Rectangle 1" width="515.054" height="448.451" fill="#531d83"/>
    </clipPath>
  </defs>
  <g id="Group_1" data-name="Group 1" clip-path="url(#clip-path)">
    <path id="Path_1" data-name="Path 1" d="M0,157.274c0-7.116,9.691-14.839,20.289-14.839,8.177,0,13.478,4.238,14.234,12.264,3.029-7.418,10-15.292,19.989-15.292C78.283,139.407,91,161.364,91,182.865c0,19.533-10.6,38.31-32.555,38.31-9.842,0-15.143-6.511-16.96-6.511-.454,0-.756.6-.756,1.968-.154,18.777,11.659,24.983,11.659,32.1s-14.234,14.839-24.832,14.839c-8.177,0-14.234-3.18-14.234-12.266v-61.93c0-21.8-13.324-24.986-13.324-32.1m40.124,33.767C39.975,198.915,44.365,203,49.362,203c6.513,0,12.72-7.269,12.72-22.715s-5.753-22.713-12.266-22.713c-4.845,0-8.781,4.241-9.084,12.417Z" transform="translate(0 184.879)" fill="#531d83"/>
    <path id="Path_2" data-name="Path 2" d="M74.19,221.172c-21.957,0-31.8-11.659-31.8-20.594,0-6.357,4.543-10.144,10.749-10.144,10.147,0,11.054,13.022,21.05,13.022a5.962,5.962,0,0,0,6.209-6.209c0-14.232-39.978,1.97-39.978-29.829,0-19.533,17.111-28.012,34.374-28.012,22.562,0,33.009,12.112,33.009,21.045,0,6.057-5.3,9.086-10.749,9.086-10.752,0-9.842-11.961-21.352-11.961-4.087,0-6.662,2.875-6.662,6.057,0,17.563,40.127.151,40.127,31.041,0,19.987-17.263,26.5-34.976,26.5" transform="translate(53.606 184.879)" fill="#531d83"/>
    <path id="Path_3" data-name="Path 3" d="M111.53,206.124c0,9.691,4.241,11.052,7.874,12.72a8.738,8.738,0,0,1,5.45,8.023c0,4.089-2.875,7.876-8.63,7.876H79.58c-5.753,0-8.63-3.787-8.63-7.876a8.738,8.738,0,0,1,5.45-8.023c3.636-1.668,7.874-3.029,7.874-12.72,0-21.806-11.81-24.986-11.81-32.1S86.7,159.184,97.3,159.184c8.174,0,14.232,3.178,14.232,12.264Zm-16.5-49.062c-7.723,0-15.292-5.148-15.292-15.6,0-9.691,7.418-14.688,14.99-14.688s15.292,4.845,15.292,14.992-7.572,15.292-14.99,15.292" transform="translate(94.093 168.131)" fill="#531d83"/>
    <path id="Path_4" data-name="Path 4" d="M128.671,157.577c-11.508,0-10.6,11.961-21.352,11.961-5.45,0-10.752-3.029-10.752-9.084,0-8.935,10.452-21.047,33.013-21.047,17.26,0,34.523,8.479,34.372,28.012v21.957c0,9.691,1.968,11.052,5.6,12.717a8.741,8.741,0,0,1,5.45,8.025c0,4.089-2.875,8.025-8.63,8.025H155.168c-10.9,0-13.173-9.386-13.173-13.476-1.058,10.6-11.356,14.99-22.106,14.99-14.69,0-25.441-8.479-25.441-23.469,0-12.568,8.935-25.137,24.986-25.137,8.33,0,12.871,3.331,15.141,3.331,1.517,0,1.97-1.363,1.97-6.209,0-5.9-3.333-10.6-7.874-10.6m1.666,45.577c3.331,0,6.662-2.424,6.662-7.723,0-4.392-2.877-6.36-6.057-6.36a7.628,7.628,0,0,0-7.723,7.572c0,4.087,3.636,6.511,7.118,6.511" transform="translate(125.255 184.879)" fill="#531d83"/>
    <path id="Path_5" data-name="Path 5" d="M126.539,157.274c0-7.116,9.691-14.839,20.289-14.839,8.177,0,13.478,4.238,14.234,12.264,3.029-7.418,10-15.292,19.989-15.292,23.771,0,36.491,21.957,36.491,43.458,0,19.533-10.6,38.31-32.555,38.31-9.842,0-15.143-6.511-16.96-6.511-.454,0-.756.6-.756,1.968-.154,18.777,11.659,24.983,11.659,32.1S164.7,263.572,154.1,263.572c-8.177,0-14.234-3.18-14.234-12.266v-61.93c0-21.8-13.324-24.986-13.324-32.1m40.124,33.767C166.514,198.915,170.9,203,175.9,203c6.513,0,12.72-7.269,12.72-22.715s-5.753-22.713-12.266-22.713c-4.845,0-8.781,4.241-9.084,12.417Z" transform="translate(167.814 184.879)" fill="#531d83"/>
    <path id="Path_6" data-name="Path 6" d="M200.729,221.172c-21.957,0-31.8-11.659-31.8-20.594,0-6.357,4.541-10.144,10.749-10.144,10.147,0,11.054,13.022,21.05,13.022a5.962,5.962,0,0,0,6.209-6.209c0-14.232-39.978,1.97-39.978-29.829,0-19.533,17.111-28.012,34.374-28.012,22.562,0,33.009,12.112,33.009,21.045,0,6.057-5.3,9.086-10.749,9.086-10.752,0-9.842-11.961-21.352-11.961-4.087,0-6.662,2.875-6.662,6.057,0,17.563,40.127.151,40.127,31.041,0,19.987-17.263,26.5-34.976,26.5" transform="translate(221.42 184.879)" fill="#531d83"/>
    <path id="Path_7" data-name="Path 7" d="M238.069,206.124c0,9.691,4.241,11.052,7.874,12.72a8.738,8.738,0,0,1,5.45,8.023c0,4.089-2.875,7.876-8.63,7.876H206.119c-5.753,0-8.63-3.787-8.63-7.876a8.738,8.738,0,0,1,5.45-8.023c3.636-1.668,7.874-3.029,7.874-12.72,0-21.806-11.81-24.986-11.81-32.1s14.234-14.839,24.834-14.839c8.174,0,14.232,3.178,14.232,12.264Zm-16.5-49.062c-7.723,0-15.292-5.148-15.292-15.6,0-9.691,7.418-14.688,14.99-14.688s15.292,4.845,15.292,14.992-7.572,15.292-14.99,15.292" transform="translate(261.907 168.131)" fill="#531d83"/>
    <path id="Path_8" data-name="Path 8" d="M168.585,201.68a10.029,10.029,0,0,1-6.806-2.235,8.049,8.049,0,0,1,0-11.815,10.018,10.018,0,0,1,6.806-2.235,12.031,12.031,0,0,1,6.62,1.668,5.2,5.2,0,0,1,2.659,4.383h-3.941a2.376,2.376,0,0,0-1.445-2.1,8.425,8.425,0,0,0-3.761-.7,6.271,6.271,0,0,0-4.168,1.279,5.05,5.05,0,0,0-.014,7.22,6.026,6.026,0,0,0,4.05,1.289,7.962,7.962,0,0,0,3.582-.733,3.32,3.32,0,0,0,1.847-2.18h-7.767V192.78h11.861v8.544h-2.491l-.179-3.115a5.846,5.846,0,0,1-2.715,2.6,9.417,9.417,0,0,1-4.138.868" transform="translate(211.125 245.867)" fill="#531d83"/>
    <path id="Path_9" data-name="Path 9" d="M168.609,201.12V185.546H181a5.47,5.47,0,0,1,3.682,1.135,3.729,3.729,0,0,1,1.324,2.98,3.413,3.413,0,0,1-1.358,2.882A5.86,5.86,0,0,1,181,193.578h-1.6a7.348,7.348,0,0,1,2.424.535,5.819,5.819,0,0,1,1.982,1.456,13.8,13.8,0,0,1,1.68,2.235q.747,1.225,1.814,3.315h-4.585q-.865-1.556-1.3-2.3T180.4,197.17a7.6,7.6,0,0,0-.933-1.245,7.98,7.98,0,0,0-.856-.712,2.479,2.479,0,0,0-.991-.458,6.9,6.9,0,0,0-1.156-.088h-4.05l.021,6.453Zm3.8-9.433h7.809q1.958,0,1.959-1.468a1.437,1.437,0,0,0-.479-1.2,2.357,2.357,0,0,0-1.479-.379h-7.83Z" transform="translate(223.607 246.068)" fill="#531d83"/>
    <path id="Path_10" data-name="Path 10" d="M186.659,201.681a10.824,10.824,0,0,1-7.176-2.226,7.918,7.918,0,0,1,0-11.838,12.725,12.725,0,0,1,14.374,0,7.918,7.918,0,0,1,0,11.838,10.858,10.858,0,0,1-7.2,2.226m0-3.25a6.907,6.907,0,0,0,4.427-1.279,4.881,4.881,0,0,0,0-7.232,8.295,8.295,0,0,0-8.844,0,4.893,4.893,0,0,0,.012,7.232,6.87,6.87,0,0,0,4.406,1.279" transform="translate(234.501 245.865)" fill="#531d83"/>
    <path id="Path_11" data-name="Path 11" d="M195.965,201.681a10.824,10.824,0,0,1-7.176-2.226,7.918,7.918,0,0,1,0-11.838,12.725,12.725,0,0,1,14.374,0,7.918,7.918,0,0,1,0,11.838,10.858,10.858,0,0,1-7.2,2.226m0-3.25a6.906,6.906,0,0,0,4.427-1.279,4.881,4.881,0,0,0,0-7.232,8.295,8.295,0,0,0-8.844,0,4.893,4.893,0,0,0,.012,7.232,6.87,6.87,0,0,0,4.406,1.279" transform="translate(246.843 245.865)" fill="#531d83"/>
    <path id="Path_12" data-name="Path 12" d="M195.706,201.121V185.547h3.406l6.406,10.1,6.385-10.1h3.426v15.574H211.5v-8.988l-5.606,8.988h-.756l-5.608-8.967v8.967Z" transform="translate(259.542 246.069)" fill="#531d83"/>
    <path id="Path_13" data-name="Path 13" d="M205.577,201.121V185.547h15.174v3.247H209.4v2.894h11.147v3.047H209.4v3.136h11.347v3.25Z" transform="translate(272.633 246.069)" fill="#531d83"/>
    <path id="Path_14" data-name="Path 14" d="M213.382,201.12V185.546h12.392a5.47,5.47,0,0,1,3.682,1.135,3.729,3.729,0,0,1,1.324,2.98,3.413,3.413,0,0,1-1.359,2.882,5.86,5.86,0,0,1-3.647,1.035h-1.6a7.348,7.348,0,0,1,2.424.535,5.819,5.819,0,0,1,1.982,1.456,13.8,13.8,0,0,1,1.68,2.235q.747,1.225,1.814,3.315h-4.585q-.865-1.556-1.3-2.3t-1.014-1.647a7.6,7.6,0,0,0-.933-1.245,7.975,7.975,0,0,0-.856-.712,2.479,2.479,0,0,0-.991-.458,6.9,6.9,0,0,0-1.156-.088h-4.05l.021,6.453Zm3.8-9.433h7.809q1.957,0,1.959-1.468a1.437,1.437,0,0,0-.479-1.2,2.357,2.357,0,0,0-1.479-.379h-7.83Z" transform="translate(282.984 246.068)" fill="#531d83"/>
    <path id="Path_15" data-name="Path 15" d="M343.868,53.773a21.6,21.6,0,0,0-6.876-12.054c-6.274-5.478-14.741-6.413-22.071-5.818.749-8.525-.035-18.954-6.178-26.553-4.027-4.983-11.9-10.607-26.47-9.1a26.981,26.981,0,0,0-19.668,11.764c-8.284,11.738-10.147,31.569-9.326,51.444a105.9,105.9,0,0,1-15.983-18.9A9.3,9.3,0,1,0,221.45,54.3c.723,1.182,13.39,21.433,34.1,34.3,1.5,11.3,3.4,21.287,4.848,28.138-20.005-3.35-33.767-18.084-47.117-32.408C199.831,69.9,185.925,54.98,166.429,54.98c-.156,0-.309,0-.468,0-23.6.288-46.728,23.073-64.561,52.26A279.437,279.437,0,0,0,72.947,90.805a9.306,9.306,0,0,0-8.374,16.621A255.17,255.17,0,0,1,92.294,123.57a263.51,263.51,0,0,0-13.152,30.487c-6.888,19.249-20.67,65.9.021,83.3,5.178,4.355,12.45,6.583,20.959,6.583a61.442,61.442,0,0,0,16.29-2.38c17.851-4.95,38.738-18.307,45.149-36.986,8.844-25.772-8.974-58.2-44.974-86.411,15.125-25.193,33.658-44.379,49.6-44.574h.219c11.422,0,21.545,10.866,33.26,23.434,15.446,16.576,34.548,36.984,64.819,38.864,3.568,13.21,10.812,28.954,23.12,39.708-14.15,16.574-31.376,31.01-47.666,33.913a27.547,27.547,0,0,1-22.238-5.2c-16.1-11.891-18.693-28.193-19.245-39.42a9.3,9.3,0,0,0-18.586.912c.382,7.783,1.475,29.885,19.966,47.722a91.6,91.6,0,0,0-16.446,15.016c-13.585,16.023-18.135,34.048-13.159,52.13a9.3,9.3,0,1,0,17.942-4.938C180.151,246.59,212.6,227.259,214,226.445a9.178,9.178,0,0,0,2.068-1.691,45.851,45.851,0,0,0,27.135,3.075c24.4-4.348,46.326-25.446,60.572-42.609a51.4,51.4,0,0,0,16.553,3.008l.2,0a9.307,9.307,0,0,0,9.251-10.261c-.472-4.79-4.75-8.2-9.561-8.36a34.835,34.835,0,0,1-4.289-.421c.907-1.317,1.707-2.5,2.361-3.5,5.118-7.781,20.861-34.3,8.581-48.985-8.063-9.642-20.491-6.464-32.513-3.389-4.648,1.186-9.675,2.466-14.95,3.285-1.317-5.853-2.6-12.38-3.734-19.265a59.462,59.462,0,0,0,7.73,1.41c17.509,1.984,34.509-4.02,50.646-17.877,7.823-6.716,11.982-17.018,9.821-27.1M143.958,198.533c-3.533,10.3-17.209,20.85-32.52,25.093-10.228,2.838-17.567,1.789-20.3-.512-6.311-5.308-6.518-29.117,5.525-62.788a242.709,242.709,0,0,1,10.845-25.507c29.1,23.713,41.7,48.427,36.451,63.714m155-67.185c4.6-1.177,11.429-2.924,13.731-2.487,1.189,2.922-2.017,14.539-9.954,26.6-1.186,1.8-2.445,3.627-3.736,5.455a49.411,49.411,0,0,1-10.335-13.973,79.435,79.435,0,0,1-4.983-12.175c5.6-.954,10.74-2.263,15.276-3.422M322.674,66.1c-12.3,10.787-24.76,15.544-37.1,14.166a44.115,44.115,0,0,1-12.638-3.457c-2.27-22.485-1.88-44.493,4.876-54.063a8.331,8.331,0,0,1,6.378-3.982c5.022-.521,8.428.244,10.075,2.275,3.764,4.634,2.233,17.06.016,23.981A9.336,9.336,0,0,0,298.8,56.129a9.578,9.578,0,0,0,7.653.456c6.56-2.273,15.706-3.117,18.3-.842a3.69,3.69,0,0,1,.968,2.045,8.839,8.839,0,0,1-3.052,8.309" transform="translate(78.846 0)" fill="#531d83"/>
    <path id="Path_16" data-name="Path 16" d="M119.346,74.737c1.812-2.817,5.48-7.49,8.893-7.416,5.622.177,13.464,9.633,17,15.969A9.3,9.3,0,0,0,161.532,74.3c-1.407-2.552-14.276-24.948-32.648-25.574-6.69-.212-16.439,2.356-25.186,15.941a9.3,9.3,0,1,0,15.648,10.072" transform="translate(135.557 64.601)" fill="#531d83"/>
  </g>
</svg>
